<svg width="236" height="236" viewBox="0 0 236 236" fill="none" xmlns="http://www.w3.org/2000/svg">
<circle cx="118" cy="118" r="118" fill="#4C8C9E"/>
<path d="M60.6494 193.04C58.4999 193.834 56.354 194.643 54.1938 195.413C53.6476 195.608 53.0481 195.807 52.4877 195.768C52.0904 195.739 51.5407 195.388 51.4023 195.044C51.303 194.796 51.6719 194.147 51.9947 193.976C53.3887 193.235 54.8394 192.6 56.698 191.724C54.9458 191.852 53.5944 192.093 52.2642 191.99C51.5371 191.933 50.8525 191.298 50.1467 190.926C50.7709 190.49 51.3491 189.773 52.0266 189.67C54.6904 189.259 57.3862 189.042 60.0677 188.752C60.0606 188.581 60.0535 188.407 60.05 188.237C57.9856 188.237 55.9248 188.251 53.8604 188.23C53.0375 188.223 52.1507 188.308 51.413 188.035C50.8809 187.836 50.5475 187.109 50.1218 186.62C50.6362 186.329 51.154 185.786 51.6648 185.797C53.3709 185.832 55.0735 186.074 56.7796 186.223C57.599 186.293 58.4219 186.332 59.298 186.144C57.8366 185.768 56.3504 185.46 54.9174 184.995C53.7469 184.616 52.5693 184.158 51.53 183.52C51.1398 183.278 51.1257 182.427 50.9377 181.853C51.4023 181.728 51.906 181.427 52.3281 181.516C54.1584 181.899 55.9638 182.399 57.9324 182.576C57.184 182.104 56.4214 181.657 55.6907 181.157C55.0132 180.693 54.2648 180.26 53.7505 179.643C53.3638 179.178 53.3035 178.444 53.0978 177.83C53.754 177.766 54.4811 177.493 55.0558 177.685C56.2688 178.089 57.4039 178.738 58.7801 179.097C58.0175 178.302 57.1911 177.554 56.51 176.695C56.1128 176.191 55.9425 175.507 55.6694 174.904C56.432 174.858 57.2124 174.698 57.9572 174.805C58.507 174.883 59.0072 175.308 59.862 175.752C59.4541 175.142 59.1349 174.826 59.0178 174.45C58.8121 173.79 58.734 173.091 58.6028 172.41C59.2945 172.495 60.0145 172.488 60.6672 172.698C61.1425 172.847 61.5255 173.283 62.125 173.716C62.0044 173.123 61.8483 172.74 61.8732 172.368C61.898 171.932 61.9547 171.268 62.2208 171.126C62.6003 170.924 63.1998 171.041 63.6786 171.148C64.0014 171.219 64.3809 171.726 64.5654 171.648C67.5697 170.357 67.0305 173.258 67.9847 174.57C68.1762 174.262 68.3288 174.01 68.5664 173.631C69.7795 175.138 70.8933 174.602 72.0283 173.499C73.1173 172.442 73.0321 171.715 71.6098 171.215C70.1661 170.708 68.7189 170.105 67.2256 169.885C65.7714 169.672 65.6046 168.948 65.6153 167.732C65.7146 154.845 65.7749 141.959 65.8458 129.073C65.8671 125.054 65.8316 121.032 65.9487 117.016C65.9771 116.027 66.5056 115.055 66.7823 114.069C67.3888 111.916 68.1195 109.787 68.5558 107.603C69.8859 100.941 71.4643 94.3011 72.2447 87.5689C72.8867 82.0355 72.5852 76.3815 72.5781 70.7843C72.5746 68.6703 72.2872 66.5456 72.0283 64.4387C71.6949 61.7287 70.7904 59.2777 68.5877 57.4581C68.1479 57.0963 67.8464 56.5678 67.4314 56.0535C66.0125 57.224 65.516 58.7918 65.5053 60.5547C65.4911 62.8602 65.5301 65.1658 65.5053 67.4714C65.4947 68.3581 65.8281 69.4506 64.4448 69.7344C63.1678 69.9969 62.4194 69.4081 61.9689 68.2801C61.9299 68.1808 61.82 68.1063 61.749 68.0283C59.0781 69.3442 57.9963 68.6384 57.4571 65.4815C56.283 65.4815 54.7543 65.9213 54.1477 65.3644C53.4844 64.7508 53.6724 63.2185 53.5163 62.2608C52.6792 62.0728 51.5229 61.8139 50.3666 61.5549C50.6255 60.4376 50.8845 59.3203 51.0866 58.4442C50.2389 57.8518 48.8165 57.3127 48.2951 56.3053C48.0397 55.8123 49.4621 54.4538 50.168 53.4216C49.157 52.8647 46.8515 53.3223 47.0075 51.2969C47.0785 50.3605 48.6073 49.5376 49.228 48.9098C48.6534 48.1401 47.8517 47.0653 47.0466 45.9906C48.2561 45.4727 49.4656 44.9584 50.7603 44.4015C50.5759 44.2312 50.0403 43.8872 49.7175 43.4012C49.3379 42.8301 49.1393 42.1349 48.8626 41.4929C49.5862 41.2233 50.2956 40.9041 51.0405 40.7019C51.3278 40.6239 51.6861 40.819 51.6045 40.8012C51.4236 39.6768 51.2321 38.4992 51.0441 37.3216C52.3671 37.4138 53.6902 37.506 54.8713 37.5876C54.6585 37.3181 54.0874 36.7683 53.7505 36.0979C53.5163 35.6403 53.3709 34.8245 53.6192 34.5265C53.8817 34.2109 54.6904 34.1612 55.1941 34.2782C55.9248 34.445 56.5987 34.8635 57.5564 35.2927C57.1698 34.4982 56.7903 33.9235 56.6165 33.2922C56.4888 32.8311 56.6342 32.2955 56.659 31.7918C57.1414 31.884 57.7054 31.845 58.092 32.0897C58.8759 32.5934 59.564 33.2496 60.5643 34.0619C60.2415 32.9623 59.9436 32.1358 59.7804 31.281C59.713 30.9334 59.8265 30.3623 60.0642 30.1956C60.3018 30.0324 60.88 30.1389 61.1744 30.3339C62.1073 30.9547 62.9763 31.6712 63.8701 32.3487C63.8134 32.4905 63.7602 32.636 63.7034 32.7779C63.7034 31.8911 63.5864 30.9831 63.7424 30.1282C63.8524 29.5359 64.3454 29.0109 64.6682 28.4576C65.2074 28.8406 65.8458 29.1421 66.2537 29.6352C66.6475 30.1105 66.7964 30.788 67.2398 31.8024C67.3923 30.8554 67.3427 30.2027 67.6158 29.7345C67.9918 29.0818 68.609 28.5711 69.1233 28C69.5986 28.5321 70.1661 29.0074 70.5173 29.6104C70.7656 30.0395 70.723 30.6354 70.8401 31.3342C71.1948 30.6496 71.3792 29.9615 71.8226 29.5394C72.2305 29.1492 72.9931 28.7662 73.4542 28.8974C73.9011 29.0215 74.4509 29.8054 74.4509 30.2985C74.4474 31.6251 74.1778 32.9517 74.0111 34.2782C74.1672 34.3421 74.3197 34.4059 74.4758 34.4662C74.9688 33.2851 75.4725 32.1075 75.9513 30.9192C76.4195 29.7593 77.1644 29.284 78.2605 30.0963C78.5726 30.3269 78.7287 30.8837 78.7854 31.3129C78.8741 31.9372 78.8067 32.5828 78.8067 33.2319C79.0905 33.2 79.2465 33.2283 79.2962 33.168C81.0662 31.0682 81.0307 31.1107 83.2795 32.7885C85.2268 34.2392 87.2132 35.6509 89.274 36.9314C91.7073 38.4425 93.5056 40.4891 94.9244 42.9224C95.1124 43.2451 95.3181 43.5573 95.7863 44.3164C95.9495 41.9789 96.7015 39.8648 96.0488 38.368C95.1656 36.3426 93.2538 34.7003 90.6396 34.6436C89.6535 34.6223 88.6674 34.64 87.4189 34.64C89.6322 33.4411 93.3282 34.3988 97.9784 36.935C101.284 38.7404 104.313 40.7729 106.129 44.2951C106.307 40.3401 106.559 36.4774 103.92 33.129C102.824 31.7386 103.022 31.4052 104.32 31.1781C104.473 31.6889 104.462 32.2671 104.736 32.487C111.95 38.2367 113.805 46.402 114.82 54.9078C115.607 61.5195 115.189 68.1276 114.078 74.6648C113.578 77.6124 112.741 80.5387 111.73 83.355C110.336 87.2319 106.85 89.2856 103.136 88.782C99.2979 88.2605 96.1091 85.203 95.9176 81.1913C95.57 73.9376 95.2153 66.652 95.5061 59.409C95.6906 54.8227 94.9918 50.9103 91.7853 47.5654C90.973 46.7177 90.2317 45.799 89.5507 45.0222C88.4333 45.5614 87.4544 46.0331 86.5499 46.4694C87.3373 48.704 88.146 50.9954 88.9867 53.3826C89.3166 53.1272 89.7351 52.808 90.3416 52.3433C90.2459 53.982 91.1823 55.5569 89.2279 56.5784C88.8554 56.7735 88.8519 57.8696 88.8519 58.5506C88.8519 79.4178 88.8803 100.285 88.8945 121.152C88.9051 133.684 88.8909 146.216 88.9299 158.747C88.9335 159.716 89.3237 160.677 89.4655 161.652C89.8096 163.972 90.1253 166.295 90.4232 168.619C90.4587 168.888 90.3558 169.399 90.2211 169.434C87.9439 170.03 88.6816 172.293 87.8374 173.666C87.2557 174.61 86.6882 175.56 86.0994 176.706C87.7452 175.475 89.4088 175.659 91.012 176.557C91.5583 176.862 91.9626 177.419 92.4344 177.862C91.8704 178.203 91.3135 178.564 90.7318 178.87C90.5403 178.969 90.2778 178.933 89.5613 179.011C90.8453 179.71 91.7888 180.171 92.6791 180.717C93.573 181.267 94.4136 181.906 94.8819 182.229C95.2011 176.685 95.3075 170.906 95.9992 165.199C96.2226 163.348 97.9926 161.688 98.8865 160.216C100.781 161.869 102.817 163.188 104.25 164.99C106.683 168.048 108.478 171.548 109.361 175.408C109.804 177.355 110.01 179.359 110.627 181.388C110.978 174.996 111.333 168.608 111.691 162.099C112.291 163.057 112.791 164.117 113.518 164.979C115.983 167.909 116.515 171.307 116.313 174.986C116.082 179.153 116.136 183.339 115.781 187.496C115.639 189.142 114.802 190.752 114.142 192.32C113.717 193.331 112.997 193.969 111.766 193.136C111.478 192.944 110.737 193.054 110.443 193.309C108.761 194.757 107.158 196.293 105.519 197.789C105.172 198.109 104.789 198.392 104.409 198.669C103.671 199.205 98.3757 200.758 96.9994 201.202C94.9031 201.876 93.463 200.921 93.048 198.492C93.6936 198.566 94.3037 198.637 95.0911 198.729C95.0911 196.307 95.0911 193.955 95.0911 191.632C92.3138 193.728 89.3839 195.601 86.8904 197.938C85.1381 199.581 83.1483 201.138 82.148 203.536C81.4492 205.21 80.6937 205.082 78.8386 203.046C78.4307 203.883 78.0796 204.656 77.6823 205.401C76.8097 207.033 76.3592 207.107 75.093 206.047C74.1601 206.487 72.9293 207.427 72.5604 207.161C71.8226 206.632 71.5566 205.444 71.0706 204.479C70.8472 205.157 70.6556 205.972 70.3045 206.717C70.0633 207.232 69.6021 207.643 69.2403 208.097C68.7934 207.629 68.1443 207.235 67.9421 206.678C67.5732 205.664 67.4633 204.554 67.1653 203.082C66.7503 204.096 66.5588 204.763 66.2183 205.345C65.8246 206.022 65.2996 206.622 64.8314 207.256C64.1539 206.707 63.4764 206.157 62.5365 205.391C59.6705 205.745 59.2306 205.391 59.3512 202.159C58.3829 202.964 57.3401 203.954 56.4001 202.5C55.077 200.453 57.6203 199.811 58.0424 198.275C56.4001 198.197 54.6975 200.223 52.6899 197.992C55.4637 196.342 58.0991 194.774 60.7381 193.207C60.7239 193.146 60.6849 193.093 60.6494 193.04ZM76.4905 188.471C77.6858 185.995 78.9379 183.445 80.1368 180.874C80.3071 180.505 80.222 180.019 80.2539 179.586C79.658 179.643 78.9202 179.49 78.4946 179.788C75.7988 181.682 75.0043 185.499 76.4905 188.471ZM70.4889 196.864C70.5811 196.353 70.5669 195.792 70.7833 195.342C71.4537 193.944 71.9751 192.37 72.9967 191.273C74.0324 190.16 75.1 189.337 74.2984 187.496C71.1167 189.858 69.7227 192.894 70.4889 196.864Z" fill="url(#paint0_linear_79_425)"/>
<path d="M188.389 113.409C187.889 140.739 179.51 162.014 162.197 179.444C154.202 187.489 144.657 193.224 133.438 195.736C131.388 196.193 129.224 196.328 127.117 196.3C124.429 196.264 122.744 194.764 122.481 192.121C122.279 190.089 122.357 187.996 122.616 185.967C122.861 184.066 124.038 182.619 125.823 181.774C126.621 181.395 127.422 180.983 128.27 180.753C138.173 178.061 145.831 172.027 152.482 164.504C160.619 155.299 166.723 144.967 168.387 132.63C170.558 116.52 170.565 100.459 163.244 85.4158C156.185 70.9119 145.193 60.1538 130.569 53.2229C129.245 52.5951 127.791 52.2404 126.383 51.8147C123.865 51.0486 122.903 49.949 122.62 47.31C122.538 46.5474 122.581 45.7741 122.542 45.008C122.251 39.4604 125.745 37.9635 129.795 38.7155C133.417 39.3895 137.116 40.3152 140.433 41.8759C164.152 53.0491 179.486 71.3801 185.959 96.7982C187.555 103.094 187.871 109.72 188.389 113.409Z" fill="url(#paint1_linear_79_425)"/>
<path d="M122.07 62.3636C126.099 61.9876 129.643 62.5693 132.906 64.2258C146.711 71.2348 156.749 81.6701 161.509 96.6209C162.41 99.4514 162.112 102.64 162.74 105.584C164.23 112.554 164.031 119.581 163.808 126.615C163.779 127.462 163.166 128.278 162.91 129.133C162.598 130.186 162.297 131.258 162.141 132.339C160.711 142.303 157.008 151.217 149.896 158.485C142.547 166.001 133.867 170.768 123.07 170.882C122.726 170.885 122.382 170.814 121.903 170.768C121.864 170.218 121.793 169.707 121.793 169.197C121.79 162.461 121.814 155.725 121.786 148.989C121.779 147.209 122.137 146.223 124.287 145.815C132.268 144.297 137.847 137.1 138.039 128.126C138.209 120.272 138.195 112.409 138.067 104.552C137.943 96.7876 131.657 90.5093 123.709 89.9454C122.868 89.8851 122.049 89.995 122.052 88.711C122.08 79.9853 122.07 71.2489 122.07 62.3636Z" fill="url(#paint2_linear_79_425)"/>
<path d="M98.1486 93.244C106.236 93.244 114.075 93.244 122.169 93.244C122.169 93.9853 122.169 94.7302 122.169 95.4716C122.183 111.607 122.212 127.742 122.158 143.881C122.155 144.584 121.541 145.442 120.96 145.932C120.42 146.386 119.551 146.645 118.821 146.652C111.975 146.705 105.129 146.684 98.1486 146.684C98.1486 128.899 98.1486 111.199 98.1486 93.244Z" fill="url(#paint3_linear_79_425)"/>
<path d="M76.4904 188.471C75.0042 185.499 75.7987 181.682 78.4945 179.785C78.9166 179.487 79.6579 179.639 80.2538 179.582C80.2219 180.015 80.307 180.505 80.1368 180.87C78.9379 183.449 77.6858 185.999 76.4904 188.471Z" fill="#91CDB6"/>
<path d="M70.4888 196.864C69.7191 192.894 71.1167 189.858 74.2984 187.496C75.1 189.337 74.0323 190.16 72.9966 191.273C71.975 192.369 71.4536 193.944 70.7832 195.342C70.5704 195.792 70.5811 196.353 70.4888 196.864Z" fill="#8CC8B3"/>
<circle cx="118" cy="118" r="111" stroke="url(#paint4_linear_79_425)" stroke-width="6"/>
<defs>
<linearGradient id="paint0_linear_79_425" x1="81.676" y1="28" x2="81.676" y2="208.097" gradientUnits="userSpaceOnUse">
<stop stop-color="#BFF9D3"/>
<stop offset="1" stop-color="#88C4B0"/>
</linearGradient>
<linearGradient id="paint1_linear_79_425" x1="155.378" y1="38.5346" x2="155.378" y2="196.303" gradientUnits="userSpaceOnUse">
<stop stop-color="#BFF9D3"/>
<stop offset="1" stop-color="#88C4B0"/>
</linearGradient>
<linearGradient id="paint2_linear_79_425" x1="142.874" y1="62.2538" x2="142.874" y2="170.882" gradientUnits="userSpaceOnUse">
<stop stop-color="#BFF9D3"/>
<stop offset="1" stop-color="#88C4B0"/>
</linearGradient>
<linearGradient id="paint3_linear_79_425" x1="110.169" y1="93.244" x2="110.169" y2="146.688" gradientUnits="userSpaceOnUse">
<stop stop-color="#BFF9D3"/>
<stop offset="1" stop-color="#88C4B0"/>
</linearGradient>
<linearGradient id="paint4_linear_79_425" x1="118" y1="4" x2="118" y2="232" gradientUnits="userSpaceOnUse">
<stop stop-color="#9ADBDB"/>
<stop offset="1" stop-color="#BFF9D3"/>
</linearGradient>
</defs>
</svg>
